<svg xmlns="http://www.w3.org/2000/svg" width="67.437" height="67.406" viewBox="0 0 67.437 67.406">
  <g id="layer2_1_" transform="translate(-588.97 6.002)" style="isolation: isolate">
    <path id="XMLID_1_" d="M19.4,63.5a.878.878,0,0,1-.1.7L17.6,67a.909.909,0,0,1-.8.4H.9A.927.927,0,0,1,.1,66L10.4,51a.367.367,0,0,0,.1-.3l4.7-20a2.092,2.092,0,0,1,.4-.6L22,26.6a.675.675,0,0,0,.4-.6l.9-3.7A.968.968,0,0,1,25,22l.3.5a.878.878,0,0,1,.1.7L19.6,40c0,.1-.1.3,0,.4l1.4,8a.9.9,0,0,1-.1.5l-3.4,7.7a.637.637,0,0,0,0,.6Zm47.1,3.9h-11a1.234,1.234,0,0,1-.8-.4L47.3,56.6c0-.1-.1-.1-.1-.2L43.5,45.7a1,1,0,0,0-.4-.5l-8.9-4.5a1.47,1.47,0,0,1-.5-.6l-1.3-6.5c0-.1-.1-.2-.1-.3l-3-4.5a.755.755,0,0,1-.1-.8L31,24a.792.792,0,0,1,.8-.5l3.4-.2a.764.764,0,0,0,.5-.2l2.5-2a1.019,1.019,0,0,1,1.5.3l8.7,17.7a.349.349,0,0,0,.1.2l1.1,7.1a.52.52,0,0,0,.2.4l17.3,19a.916.916,0,0,1-.6,1.6ZM23.9,12A5.261,5.261,0,0,1,27,7.4a1.854,1.854,0,0,1-.2-.7c0-1,1.1-1.8,2.5-1.8h.1a3.356,3.356,0,0,1,2.9-1.6h.3a.367.367,0,0,0,.3-.1c.9-1.4,3.3-2.4,6-2.4a8.246,8.246,0,0,1,2.8.4A1.559,1.559,0,0,1,42.9.6a1.175,1.175,0,0,1,1.2.7A4.517,4.517,0,0,1,47.4,0c2.2,0,4,1.4,4,3.1a1.268,1.268,0,0,1-.1.6c0,.1,0,.3.2.3,1.4.5,2.4,1.5,2.4,2.6,0,1.3-1.2,2.4-3,2.8-.1,0-.2.2-.2.3h0c0,1-1,1.8-2.3,1.9v.1c0,1.9-3.6,3.4-8.1,3.4a21.3,21.3,0,0,1-2.7-.2h0c0,.8-1,1.4-2.3,1.4h-.2a1.268,1.268,0,0,1,.1.6c0,1.2-1.6,2.2-3.5,2.2h-.6c-.2,0-.3.1-.3.2a1.482,1.482,0,0,1-1.3,1.1,1.453,1.453,0,0,1-1.4-1.5,1.284,1.284,0,0,1,.4-1,.367.367,0,0,0,.1-.3,1.854,1.854,0,0,1-.2-.7h0a.319.319,0,0,0-.3-.3A4.583,4.583,0,0,1,23.9,12ZM44.1,59.8v.3l-.5,6.5a.817.817,0,0,1-.9.8H26.2a.792.792,0,0,1-.8-.5l-2.7-5.1v-.1l-2.6-6.2a.854.854,0,0,1,0-.7l4.3-8.3a.846.846,0,0,0,0-.7L22.3,40a.637.637,0,0,1,0-.6L25.8,32a1,1,0,0,1,1.8.1l1.1,3.4L32,44.3a1.024,1.024,0,0,0,.6.5l7,2.4a.9.9,0,0,1,.6.6Z" transform="translate(589 -6)" fill="#fff"/>
  </g>
</svg>
